<svg width="20" height="20" viewBox="0 0 20 20" fill="none" xmlns="http://www.w3.org/2000/svg">
<path d="M20 10C20 15.5228 15.5228 20 10 20C4.47715 20 0 15.5228 0 10C0 4.47715 4.47715 0 10 0C15.5228 0 20 4.47715 20 10Z" fill="#017EFA"/>
<path fill-rule="evenodd" clip-rule="evenodd" d="M10 15.5557C9.38638 15.5557 8.88892 15.0582 8.88892 14.4446L8.88892 7.77789C8.88892 7.16424 9.38638 6.66677 10 6.66677C10.6137 6.66677 11.1111 7.16424 11.1111 7.77789L11.1111 14.4446C11.1111 15.0582 10.6137 15.5557 10 15.5557Z" fill="white"/>
<path d="M8.88886 4.44455C8.88886 3.8309 9.38632 3.33344 9.99997 3.33344C10.6136 3.33344 11.1111 3.8309 11.1111 4.44455C11.1111 5.0582 10.6136 5.55566 9.99997 5.55566C9.38632 5.55566 8.88886 5.0582 8.88886 4.44455Z" fill="white"/>
</svg>
